<svg xmlns="http://www.w3.org/2000/svg" xmlns:xlink="http://www.w3.org/1999/xlink" width="500" zoomAndPan="magnify" viewBox="0 0 375 374.999991" height="500" preserveAspectRatio="xMidYMid meet" version="1.0"><defs><clipPath id="a24c2fe11c"><path d="M 71.089844 90.523438 L 374.996094 90.523438 L 374.996094 285 L 71.089844 285 Z M 71.089844 90.523438 " clip-rule="nonzero"/></clipPath><clipPath id="fdf379a218"><path d="M 374.996094 107.773438 L 374.996094 267.222656 C 374.996094 271.796875 373.179688 276.183594 369.945312 279.417969 C 366.710938 282.65625 362.320312 284.472656 357.746094 284.472656 L 89.183594 284.472656 C 84.609375 284.472656 80.222656 282.65625 76.984375 279.417969 C 73.75 276.183594 71.933594 271.796875 71.933594 267.222656 L 71.933594 107.773438 C 71.933594 103.199219 73.75 98.8125 76.984375 95.578125 C 80.222656 92.34375 84.609375 90.523438 89.183594 90.523438 L 357.746094 90.523438 C 362.320312 90.523438 366.710938 92.34375 369.945312 95.578125 C 373.179688 98.8125 374.996094 103.199219 374.996094 107.773438 " clip-rule="nonzero"/></clipPath><clipPath id="37e635ace4"><path d="M 0.175781 116 L 211.675781 116 L 211.675781 259.664062 L 0.175781 259.664062 Z M 0.175781 116 " clip-rule="nonzero"/></clipPath><clipPath id="aefca763e2"><path d="M 196 125.558594 L 271.824219 125.558594 L 271.824219 249.308594 L 196 249.308594 Z M 196 125.558594 " clip-rule="nonzero"/></clipPath><clipPath id="74609227e5"><path d="M 273 145.300781 L 324.34375 145.300781 L 324.34375 230.050781 L 273 230.050781 Z M 273 145.300781 " clip-rule="nonzero"/></clipPath></defs><g clip-path="url(#a24c2fe11c)"><g clip-path="url(#fdf379a218)"><path fill="#002b36" d="M 374.996094 90.523438 L 374.996094 285.484375 L 71.089844 285.484375 L 71.089844 90.523438 Z M 374.996094 90.523438 " fill-opacity="1" fill-rule="nonzero"/></g></g><g clip-path="url(#37e635ace4)"><path fill="#ffffff" d="M 15.710938 203.214844 L 158.441406 203.214844 C 158.441406 203.214844 128.371094 233.023438 127.578125 234.042969 C 125.515625 236.683594 124.277344 239.996094 124.277344 243.601562 C 124.277344 247.582031 125.78125 251.203125 128.246094 253.964844 L 129.507812 255.226562 C 132.269531 257.6875 135.898438 259.195312 139.890625 259.195312 C 143.988281 259.195312 147.714844 257.59375 150.5 255.011719 C 150.5 255.011719 208.089844 197.59375 208.382812 197.214844 C 210.421875 194.582031 211.644531 191.292969 211.644531 187.703125 C 211.644531 184.125 210.421875 180.832031 208.390625 178.203125 C 207.566406 177.136719 149.785156 119.6875 149.785156 119.6875 C 147.105469 117.515625 143.691406 116.210938 139.96875 116.210938 C 131.347656 116.210938 124.355469 123.191406 124.355469 131.796875 C 124.355469 135.574219 125.703125 139.039062 127.9375 141.734375 L 158.441406 172.195312 L 15.710938 172.195312 C 7.128906 172.195312 0.179688 179.140625 0.179688 187.703125 C 0.179688 196.273438 7.128906 203.214844 15.710938 203.214844 " fill-opacity="1" fill-rule="nonzero"/></g><g clip-path="url(#aefca763e2)"><path fill="#b58900" d="M 218.992188 129.460938 C 216.480469 126.949219 213.136719 125.558594 209.574219 125.558594 C 206.015625 125.558594 202.679688 126.949219 200.167969 129.460938 C 194.972656 134.648438 194.972656 143.089844 200.15625 148.289062 L 237.699219 185.871094 C 238.5625 186.734375 238.5625 188.132812 237.699219 188.996094 L 200.15625 226.582031 C 194.972656 231.769531 194.972656 240.21875 200.167969 245.40625 C 202.679688 247.929688 206.015625 249.308594 209.574219 249.308594 C 213.136719 249.308594 216.480469 247.929688 218.992188 245.40625 L 267.546875 196.851562 C 270.070312 194.332031 271.460938 190.992188 271.460938 187.433594 C 271.460938 183.878906 270.070312 180.535156 267.546875 178.023438 L 218.992188 129.460938 " fill-opacity="1" fill-rule="nonzero"/></g><g clip-path="url(#74609227e5)"><path fill="#ffffff" d="M 288.441406 147.972656 C 286.734375 146.253906 284.460938 145.300781 282.042969 145.300781 C 279.625 145.300781 277.359375 146.253906 275.648438 147.972656 C 272.121094 151.527344 272.121094 157.308594 275.644531 160.867188 L 301.152344 186.605469 C 301.738281 187.195312 301.738281 188.15625 301.152344 188.746094 L 275.644531 214.484375 C 272.121094 218.039062 272.121094 223.824219 275.648438 227.378906 C 277.359375 229.105469 279.625 230.050781 282.042969 230.050781 C 284.460938 230.050781 286.734375 229.105469 288.441406 227.378906 L 321.433594 194.125 C 323.148438 192.398438 324.09375 190.113281 324.09375 187.675781 C 324.09375 185.242188 323.148438 182.953125 321.433594 181.230469 L 288.441406 147.972656 " fill-opacity="1" fill-rule="nonzero"/></g></svg>