<svg xmlns="http://www.w3.org/2000/svg" xmlns:xlink="http://www.w3.org/1999/xlink" width="480" zoomAndPan="magnify" viewBox="0 0 360 60" height="80" preserveAspectRatio="xMidYMid meet" version="1.0"><defs><g/><clipPath id="0fc4bd03cb"><path d="M 14.414062 10.773438 L 76.070312 10.773438 L 76.070312 50.324219 L 14.414062 50.324219 Z M 14.414062 10.773438 " clip-rule="nonzero"/></clipPath><clipPath id="7477212353"><path d="M 76.070312 28.023438 L 76.070312 32.871094 C 76.070312 42.398438 68.347656 50.121094 58.820312 50.121094 L 31.835938 50.121094 C 22.308594 50.121094 14.585938 42.398438 14.585938 32.871094 L 14.585938 28.023438 C 14.585938 18.496094 22.308594 10.773438 31.835938 10.773438 L 58.820312 10.773438 C 68.347656 10.773438 76.070312 18.496094 76.070312 28.023438 " clip-rule="nonzero"/></clipPath><clipPath id="2b7961bdeb"><path d="M 0.1875 15.828125 L 42.9375 15.828125 L 42.9375 45 L 0.1875 45 Z M 0.1875 15.828125 " clip-rule="nonzero"/></clipPath><clipPath id="42c701a5f4"><path d="M 39.472656 17.878906 L 55.222656 17.878906 L 55.222656 43.378906 L 39.472656 43.378906 Z M 39.472656 17.878906 " clip-rule="nonzero"/></clipPath><clipPath id="6cb2185bf1"><path d="M 55.152344 21.886719 L 65.652344 21.886719 L 65.652344 39.136719 L 55.152344 39.136719 Z M 55.152344 21.886719 " clip-rule="nonzero"/></clipPath></defs><g clip-path="url(#0fc4bd03cb)"><g clip-path="url(#7477212353)"><path fill="#002b36" d="M 76.070312 10.773438 L 76.070312 50.324219 L 14.414062 50.324219 L 14.414062 10.773438 Z M 76.070312 10.773438 " fill-opacity="1" fill-rule="nonzero"/></g></g><g clip-path="url(#2b7961bdeb)"><path fill="#ffffff" d="M 3.328125 33.613281 L 32.175781 33.613281 C 32.175781 33.613281 26.097656 39.667969 25.9375 39.875 C 25.523438 40.414062 25.269531 41.085938 25.269531 41.816406 C 25.269531 42.625 25.574219 43.363281 26.074219 43.921875 L 26.328125 44.179688 C 26.886719 44.679688 27.621094 44.984375 28.425781 44.984375 C 29.257812 44.984375 30.007812 44.660156 30.574219 44.136719 C 30.574219 44.136719 42.214844 32.472656 42.273438 32.394531 C 42.683594 31.859375 42.929688 31.191406 42.929688 30.460938 C 42.929688 29.734375 42.683594 29.066406 42.273438 28.53125 C 42.105469 28.316406 30.425781 16.644531 30.425781 16.644531 C 29.886719 16.203125 29.195312 15.9375 28.445312 15.9375 C 26.703125 15.9375 25.289062 17.355469 25.289062 19.105469 C 25.289062 19.871094 25.558594 20.578125 26.011719 21.125 L 32.175781 27.3125 L 3.328125 27.3125 C 1.59375 27.3125 0.1875 28.722656 0.1875 30.460938 C 0.1875 32.203125 1.59375 33.613281 3.328125 33.613281 " fill-opacity="1" fill-rule="nonzero"/></g><g clip-path="url(#42c701a5f4)"><path fill="#b58900" d="M 44.453125 18.683594 C 43.941406 18.167969 43.257812 17.878906 42.53125 17.878906 C 41.808594 17.878906 41.125 18.167969 40.613281 18.683594 C 39.554688 19.753906 39.554688 21.492188 40.613281 22.5625 L 48.265625 30.308594 C 48.441406 30.484375 48.441406 30.773438 48.265625 30.953125 L 40.613281 38.695312 C 39.554688 39.765625 39.554688 41.507812 40.613281 42.574219 C 41.125 43.09375 41.808594 43.378906 42.53125 43.378906 C 43.257812 43.378906 43.941406 43.09375 44.453125 42.574219 L 54.355469 32.570312 C 54.867188 32.050781 55.152344 31.363281 55.152344 30.628906 C 55.152344 29.898438 54.867188 29.207031 54.355469 28.691406 L 44.453125 18.683594 " fill-opacity="1" fill-rule="nonzero"/></g><g clip-path="url(#6cb2185bf1)"><path fill="#ffffff" d="M 58.46875 22.429688 C 58.128906 22.078125 57.671875 21.886719 57.191406 21.886719 C 56.707031 21.886719 56.253906 22.078125 55.910156 22.429688 C 55.203125 23.152344 55.203125 24.328125 55.910156 25.054688 L 61.011719 30.292969 C 61.128906 30.414062 61.128906 30.609375 61.011719 30.726562 L 55.910156 35.96875 C 55.203125 36.691406 55.203125 37.867188 55.910156 38.589844 C 56.253906 38.941406 56.707031 39.136719 57.191406 39.136719 C 57.671875 39.136719 58.128906 38.941406 58.46875 38.589844 L 65.070312 31.824219 C 65.414062 31.472656 65.601562 31.007812 65.601562 30.511719 C 65.601562 30.015625 65.414062 29.546875 65.070312 29.199219 L 58.46875 22.429688 " fill-opacity="1" fill-rule="nonzero"/></g><g fill="#ffffff" fill-opacity="1"><g transform="translate(80.160793, 47.702268)"><g><path d="M 14.882812 0.542969 C 24.03125 0.542969 28.144531 -2.433594 28.144531 -9.09375 L 28.144531 -13.910156 C 28.144531 -17.75 26.195312 -20.132812 22.40625 -21.105469 L 12.175781 -23.867188 C 11.3125 -24.082031 10.824219 -24.679688 10.824219 -25.597656 L 10.824219 -27.492188 C 10.824219 -29.226562 12.394531 -30.308594 14.882812 -30.308594 C 17.425781 -30.308594 18.941406 -29.226562 18.941406 -27.492188 L 18.941406 -24.355469 L 28.144531 -24.355469 L 28.144531 -28.792969 C 28.144531 -35.449219 24.03125 -38.425781 14.882812 -38.425781 C 5.738281 -38.425781 1.625 -35.449219 1.625 -28.792969 L 1.625 -23.976562 C 1.625 -20.132812 3.570312 -17.75 7.359375 -16.777344 L 17.589844 -14.015625 C 18.507812 -13.746094 18.941406 -13.207031 18.941406 -12.285156 L 18.941406 -10.445312 C 18.941406 -8.660156 17.371094 -7.578125 14.882812 -7.578125 C 12.339844 -7.578125 10.824219 -8.660156 10.824219 -10.445312 L 10.824219 -13.53125 L 1.625 -13.53125 L 1.625 -9.09375 C 1.625 -2.433594 5.738281 0.542969 14.882812 0.542969 Z M 14.882812 0.542969 "/></g></g></g><g fill="#ffffff" fill-opacity="1"><g transform="translate(109.919363, 47.702268)"><g><path d="M 2.164062 0 L 25.976562 0 L 25.976562 -8.117188 L 11.367188 -8.117188 L 11.367188 -14.882812 L 23.273438 -14.882812 L 23.273438 -23 L 11.367188 -23 L 11.367188 -29.765625 L 25.976562 -29.765625 L 25.976562 -37.882812 L 2.164062 -37.882812 Z M 2.164062 0 "/></g></g></g><g fill="#ffffff" fill-opacity="1"><g transform="translate(137.513677, 47.702268)"><g><path d="M 2.164062 0 L 11.367188 0 L 11.367188 -19.375 L 16.5625 0 L 28.683594 0 L 28.683594 -37.882812 L 19.484375 -37.882812 L 19.484375 -18.453125 L 14.289062 -37.882812 L 2.164062 -37.882812 Z M 2.164062 0 "/></g></g></g><g fill="#ffffff" fill-opacity="1"><g transform="translate(168.354383, 47.702268)"><g><path d="M 2.164062 0 L 17.859375 0 C 25.328125 0 28.683594 -2.976562 28.683594 -9.632812 L 28.683594 -28.25 C 28.683594 -34.90625 25.328125 -37.882812 17.859375 -37.882812 L 2.164062 -37.882812 Z M 11.367188 -8.117188 L 11.367188 -29.765625 L 16.234375 -29.765625 C 18.238281 -29.765625 19.484375 -28.683594 19.484375 -26.953125 L 19.484375 -10.988281 C 19.484375 -9.199219 18.238281 -8.117188 16.234375 -8.117188 Z M 11.367188 -8.117188 "/></g></g></g><g fill="#ffffff" fill-opacity="1"><g transform="translate(198.654029, 47.702268)"><g><path d="M 1.625 -10.175781 L 1.625 0 L 25.4375 0 L 25.4375 -8.117188 L 10.824219 -8.117188 L 10.824219 -9.417969 C 10.824219 -10.175781 11.148438 -10.878906 11.691406 -11.203125 L 21.378906 -16.722656 C 24.300781 -18.402344 25.4375 -20.621094 25.4375 -24.355469 L 25.4375 -29.496094 C 25.4375 -35.664062 21.757812 -38.425781 13.53125 -38.425781 C 5.304688 -38.425781 1.625 -35.664062 1.625 -29.496094 L 1.625 -24.894531 L 10.824219 -24.894531 L 10.824219 -28.144531 C 10.824219 -29.441406 11.90625 -30.308594 13.53125 -30.308594 C 15.207031 -30.308594 16.234375 -29.496094 16.234375 -28.144531 L 16.234375 -25.003906 C 16.234375 -24.191406 15.855469 -23.488281 15.261719 -23.164062 L 5.25 -17.371094 C 2.761719 -15.964844 1.625 -13.691406 1.625 -10.175781 Z M 1.625 -10.175781 "/></g></g></g><g fill="#ffffff" fill-opacity="1"><g transform="translate(225.707284, 47.702268)"><g><path d="M 1.625 0 L 10.28125 0 L 10.28125 -8.660156 L 1.625 -8.660156 Z M 1.625 0 "/></g></g></g><g fill="#ffffff" fill-opacity="1"><g transform="translate(237.610715, 47.702268)"><g><path d="M 2.164062 0 L 11.367188 0 L 11.367188 -19.375 L 16.5625 0 L 28.683594 0 L 28.683594 -37.882812 L 19.484375 -37.882812 L 19.484375 -18.453125 L 14.289062 -37.882812 L 2.164062 -37.882812 Z M 2.164062 0 "/></g></g></g><g fill="#ffffff" fill-opacity="1"><g transform="translate(268.451421, 47.702268)"><g><path d="M 19.863281 0 L 29.226562 0 L 22.1875 -37.882812 L 6.496094 -37.882812 L -0.542969 0 L 8.820312 0 L 10.335938 -8.171875 L 18.347656 -8.171875 Z M 11.851562 -16.289062 L 14.34375 -29.710938 L 16.832031 -16.289062 Z M 11.851562 -16.289062 "/></g></g></g><g fill="#ffffff" fill-opacity="1"><g transform="translate(297.127871, 47.702268)"><g><path d="M 2.164062 0 L 11.367188 0 L 11.367188 -19.429688 L 14.179688 0 L 22.136719 0 L 24.894531 -19.375 L 24.894531 0 L 34.097656 0 L 34.097656 -37.882812 L 21.054688 -37.882812 L 18.128906 -17.644531 L 15.261719 -37.882812 L 2.164062 -37.882812 Z M 2.164062 0 "/></g></g></g><g fill="#ffffff" fill-opacity="1"><g transform="translate(333.379224, 47.702268)"><g><path d="M 2.164062 0 L 25.976562 0 L 25.976562 -8.117188 L 11.367188 -8.117188 L 11.367188 -14.882812 L 23.273438 -14.882812 L 23.273438 -23 L 11.367188 -23 L 11.367188 -29.765625 L 25.976562 -29.765625 L 25.976562 -37.882812 L 2.164062 -37.882812 Z M 2.164062 0 "/></g></g></g></svg>